<?xml version="1.0" encoding="iso-8859-1"?>
<!-- Uploaded to: SVG Repo, www.svgrepo.com, Generator: SVG Repo Mixer Tools -->
<svg height="800px" width="800px" version="1.1" id="Layer_1" xmlns="http://www.w3.org/2000/svg" xmlns:xlink="http://www.w3.org/1999/xlink" 
	 viewBox="0 0 460 460" xml:space="preserve">
<g id="XMLID_2882_">
	<path id="XMLID_1723_" style="fill:#C9C9C9;" d="M460,384.853V400c0,33.137-26.863,60-60,60H230H60c-33.137,0-60-26.863-60-60
		v-15.147c0-15.913,6.321-31.174,17.574-42.427L150,210V68.286C138.349,64.167,130,53.061,130,40V30c0-16.569,13.431-30,30-30h70h70
		c16.569,0,30,13.431,30,30v10c0,13.061-8.35,24.167-20,28.286V210l132.426,132.426C453.679,353.678,460,368.939,460,384.853z"/>
	<path id="XMLID_1724_" style="fill:#D6D6D6;" d="M230,300L230,300c-21.112,0-37.329-16.027-34.343-33.941L200,240l10-130V90h40v20
		l10,130l4.343,26.059C267.329,283.973,251.112,300,230,300z"/>
	<path id="XMLID_2095_" style="fill:#F29668;" d="M427.02,392.049v1.919c0,14.193-11.505,25.698-25.698,25.698H230H58.678
		c-14.193,0-25.698-11.505-25.698-25.698v-1.919c0-6.816,2.707-13.352,7.527-18.171l129.111-128.077
		c3.746-3.716,8.809-5.801,14.085-5.801H230h46.296c5.277,0,10.339,2.085,14.085,5.801l129.111,128.077
		C424.312,378.697,427.02,385.233,427.02,392.049z"/>
	<path id="XMLID_1721_" style="fill:#BABABA;" d="M310,70v40H150V70h40h80H310z"/>
	<path id="XMLID_1719_" style="fill:#B7B7B7;" d="M190,210l-60,250H60c-33.137,0-60-26.863-60-60v-15.147
		c0-15.913,6.321-31.174,17.574-42.427L150,210V68.286C138.349,64.167,130,53.061,130,40V30c0-16.569,13.431-30,30-30h30V210z"/>
	<path id="XMLID_2097_" style="fill:#A3A3A3;" d="M190,110L190,110l-40-40h40V110z"/>
	<path id="XMLID_1536_" style="fill:#A0A0A0;" d="M460,384.853V400c0,33.137-26.863,60-60,60h-70l-60-250V0h30
		c16.569,0,30,13.431,30,30v10c0,13.061-8.35,24.167-20,28.286V210l132.426,132.426C453.679,353.678,460,368.939,460,384.853z"/>
	<path id="XMLID_2098_" style="fill:#919191;" d="M270,70h40l-40,40l0,0V70z"/>
	<path id="XMLID_1954_" style="fill:#D34A3C;" d="M94.82,320h270.36l54.313,53.878c4.819,4.819,7.527,11.356,7.527,18.171v1.919
		c0,14.193-11.505,25.698-25.698,25.698H230H58.678c-14.193,0-25.698-11.505-25.698-25.698v-1.919
		c0-6.816,2.707-13.352,7.527-18.171L94.82,320z"/>
	<path id="XMLID_1441_" style="fill:#D24131;" d="M163.6,320l-23.92,99.667H58.679c-14.193,0-25.698-11.505-25.698-25.698v-1.919
		c0-6.816,2.708-13.352,7.527-18.171L94.82,320H163.6z"/>
	<path id="XMLID_1427_" style="fill:#A72C25;" d="M427.02,392.049v1.919c0,14.193-11.505,25.698-25.698,25.698H320.32L296.4,320
		h68.78l54.313,53.878C424.312,378.697,427.02,385.233,427.02,392.049z"/>
	<path id="XMLID_1386_" style="fill:#EB6F46;" d="M375.261,330H298.8H230h-68.8H84.739l84.879-84.199
		c3.746-3.716,8.809-5.801,14.085-5.801H200l-4.343,26.059C192.671,283.973,208.888,300,230,300s37.329-16.027,34.343-33.941
		L260,240h16.296c5.277,0,10.339,2.085,14.085,5.801L375.261,330z"/>
	<path id="XMLID_1260_" style="fill:#E15639;" d="M182.789,240.045L161.2,330H84.74l84.879-84.199
		c3.746-3.716,8.809-5.801,14.085-5.801C183.396,240,183.094,240.031,182.789,240.045z"/>
	<path id="XMLID_852_" style="fill:#C93328;" d="M375.261,330H298.8l-21.589-89.955c-0.305-0.014-0.608-0.045-0.914-0.045
		c5.277,0,10.339,2.085,14.085,5.801L375.261,330z"/>
</g>
</svg>