<?xml version="1.0" encoding="iso-8859-1"?>
<!-- Uploaded to: SVG Repo, www.svgrepo.com, Generator: SVG Repo Mixer Tools -->
<svg height="800px" width="800px" version="1.1" id="Layer_1" xmlns="http://www.w3.org/2000/svg" xmlns:xlink="http://www.w3.org/1999/xlink" 
	 viewBox="0 0 460 460" xml:space="preserve">
<g id="XMLID_3372_">
	<path id="XMLID_3263_" style="fill:#D83427;" d="M460,230L460,230c0,49.399-40.046,89.444-89.444,89.444h-51.111v51.111
		C319.444,419.954,279.399,460,230,460l0,0l0,0c-49.399,0-89.444-40.046-89.444-89.444v-51.111H89.444
		C40.046,319.444,0,279.399,0,230l0,0c0-49.399,40.046-89.444,89.444-89.444h51.111V89.444C140.556,40.045,180.601,0,230,0l0,0l0,0
		c49.399,0,89.444,40.045,89.444,89.444v51.111h51.111C419.954,140.556,460,180.601,460,230z"/>
	<path id="XMLID_3258_" style="fill:#E05F3D;" d="M0,230c0-49.399,40.046-89.444,89.444-89.444h51.111V89.444
		C140.556,40.045,180.601,0,230,0l0,0l0,0c49.399,0,89.444,40.045,89.444,89.444v51.111l-12.778,12.778L153.334,306.667
		l-12.778,12.778H89.444C40.046,319.444,0,279.399,0,230z"/>
	<path id="XMLID_3256_" style="fill:#BED3CF;" d="M391.509,143.068l-4.651,4.651l-239.2,239.2l-4.651,4.651
		c-1.623-6.74-2.505-13.768-2.505-21.006v-51.111l0.007-0.007H89.444c-7.238,0-14.266-0.882-21.006-2.505l4.651-4.651l239.2-239.2
		l4.651-4.651c1.623,6.74,2.505,13.768,2.505,21.006v51.111l-0.007,0.007h51.065C377.741,140.563,384.769,141.445,391.509,143.068z"
		/>
	<path id="XMLID_3254_" style="fill:#CCE5E1;" d="M316.94,68.438c1.623,6.74,2.505,13.768,2.505,21.006v51.111l-12.778,12.778
		L153.334,306.667l-12.778,12.778H89.444c-7.238,0-14.266-0.882-21.006-2.505l4.651-4.651l239.2-239.2L316.94,68.438z"/>
</g>
</svg>